<?xml version="1.0" standalone="no"?>
<!DOCTYPE svg PUBLIC "-//W3C//DTD SVG 20010904//EN"
 "http://www.w3.org/TR/2001/REC-SVG-20010904/DTD/svg10.dtd">
<svg version="1.0" xmlns="http://www.w3.org/2000/svg"
 width="166.000000pt" height="166.000000pt" viewBox="0 0 166.000000 166.000000"
 preserveAspectRatio="xMidYMid meet">
<metadata>
Created by potrace 1.14, written by Peter Selinger 2001-2017
</metadata>
<g transform="translate(0.000000,166.000000) scale(0.100000,-0.100000)"
fill="#000000" stroke="none">
<path d="M1000 1534 c-14 -10 -41 -33 -62 -52 -36 -34 -36 -34 -50 -13 -7 11
-18 21 -24 21 -18 0 -52 -43 -60 -75 -3 -16 -16 -38 -28 -48 -21 -17 -21 -17
-1 -32 11 -9 37 -21 57 -27 21 -6 38 -14 38 -18 0 -4 -15 -20 -33 -36 -30 -26
-57 -63 -57 -78 0 -3 11 -6 24 -6 14 0 31 -6 39 -14 10 -10 31 -13 80 -9 56 5
68 3 73 -11 3 -9 10 -13 16 -10 5 3 19 -3 31 -14 12 -12 33 -26 47 -32 25 -11
6 -9 -35 4 -11 3 -3 -2 17 -12 30 -13 38 -23 38 -44 0 -38 18 -76 60 -128 27
-33 35 -50 30 -65 -10 -27 -3 -59 20 -106 43 -84 149 -142 200 -109 10 6 4 8
-21 4 -40 -7 -99 18 -136 58 -32 34 -62 107 -56 137 6 33 6 33 37 21 73 -27
170 4 136 45 -7 8 -17 15 -23 15 -6 0 -2 -6 8 -14 17 -12 17 -16 5 -31 -11
-14 -26 -16 -72 -13 -32 2 -61 7 -65 11 -12 13 20 35 67 46 l45 11 -45 -6
c-24 -3 -52 -12 -62 -21 -15 -13 -20 -14 -35 -2 -47 35 -83 100 -83 149 0 26
2 27 43 23 23 -3 40 -3 37 0 -3 3 -21 7 -40 10 -36 4 -37 7 -24 42 l7 20 -17
-20 c-10 -11 -15 -14 -11 -7 3 7 -1 37 -10 68 -9 31 -15 57 -13 59 2 1 18 10
35 19 44 22 103 75 103 92 0 19 -34 35 -110 54 l-64 16 -3 60 c-5 91 -10 97
-53 68z"/>
<path d="M369 1496 c47 -17 99 -71 128 -134 23 -49 33 -115 19 -129 -8 -9
-160 85 -200 124 -19 19 -38 44 -42 55 -8 25 11 63 40 76 11 6 15 11 8 11 -19
1 -62 -45 -62 -66 0 -45 58 -102 172 -169 75 -45 77 -47 62 -69 -34 -52 -177
-85 -236 -54 -54 27 -86 77 -60 93 16 10 76 -29 94 -61 24 -40 34 -44 14 -5
-30 58 -92 92 -119 65 -15 -15 -15 -19 1 -45 9 -16 40 -40 69 -55 l53 -25 -17
-29 c-18 -30 -86 -68 -127 -71 -14 -1 -23 -6 -20 -10 7 -10 88 16 122 41 16
11 35 33 41 49 9 21 19 28 43 30 46 4 126 41 149 70 17 22 22 24 45 14 35 -17
87 -15 110 4 18 15 18 15 -3 5 -28 -14 -76 -14 -106 0 -21 9 -23 16 -17 38 23
86 -101 265 -182 260 -7 0 2 -6 21 -13z"/>
<path d="M729 1373 c-22 -58 -31 -128 -26 -207 5 -89 39 -196 63 -196 18 0 18
-1 -5 51 -21 48 -38 153 -33 210 3 31 6 36 22 32 27 -7 92 6 85 17 -3 5 -21 6
-40 3 -59 -9 -66 -2 -49 53 17 56 17 64 4 64 -6 0 -15 -12 -21 -27z"/>
<path d="M1261 1194 c-51 -18 -111 -55 -111 -68 0 -5 8 -2 18 6 53 47 152 76
217 64 28 -6 39 -15 52 -40 37 -78 -6 -109 -140 -104 -47 2 -83 0 -80 -4 2 -5
42 -8 89 -8 124 0 165 27 149 99 -3 16 -15 37 -26 47 -27 24 -112 28 -168 8z"/>
<path d="M637 1175 c-28 -28 1 -73 38 -59 20 8 19 60 -1 68 -21 8 -20 8 -37
-9z"/>
<path d="M869 1105 c-36 -20 -58 -57 -65 -107 -13 -99 95 -172 188 -126 70 34
94 113 57 182 -10 20 -16 36 -12 36 4 0 2 5 -5 12 -18 18 -132 21 -163 3z"/>
<path d="M553 1095 c-35 -15 -63 -60 -63 -101 0 -15 11 -42 25 -60 46 -60 132
-56 170 9 54 91 -35 193 -132 152z"/>
<path d="M16 1041 c23 -25 94 -52 109 -43 5 4 -7 9 -28 13 -21 3 -52 16 -70
29 -31 22 -32 22 -11 1z"/>
<path d="M392 968 c-23 -29 -23 -56 -1 -77 27 -25 38 -26 67 -5 26 18 29 56 6
78 -19 19 -58 21 -72 4z"/>
<path d="M1076 912 c-3 -3 -6 -13 -6 -23 0 -24 33 -42 48 -27 13 13 16 48 5
49 -5 0 -16 2 -25 4 -9 2 -19 0 -22 -3z"/>
<path d="M685 885 c-47 -25 -63 -44 -77 -89 -26 -76 4 -154 73 -188 107 -54
224 19 224 138 0 56 -18 91 -67 127 -36 27 -114 33 -153 12z"/>
<path d="M423 840 c-84 -51 -47 -180 50 -180 41 0 85 36 93 75 16 88 -68 151
-143 105z"/>
<path d="M1005 830 c-55 -22 -83 -91 -60 -147 21 -49 62 -70 127 -64 30 2 75
49 82 86 16 84 -71 158 -149 125z"/>
<path d="M502 634 c-45 -19 -72 -66 -62 -110 18 -80 107 -103 163 -43 68 74
-9 192 -101 153z"/>
<path d="M890 609 c-61 -22 -79 -112 -31 -160 41 -40 91 -40 132 0 76 77 1
195 -101 160z"/>
<path d="M675 545 c-16 -15 -25 -36 -25 -55 0 -19 9 -40 25 -55 49 -50 135
-15 135 55 0 41 -39 80 -80 80 -19 0 -40 -9 -55 -25z"/>
<path d="M613 453 c-19 -7 -16 -50 3 -57 19 -7 44 10 44 30 0 16 -30 33 -47
27z"/>
<path d="M821 403 c-32 -26 -37 -73 -11 -101 46 -49 124 -18 122 48 -1 59 -66
89 -111 53z"/>
<path d="M651 374 c-27 -35 -26 -59 4 -89 47 -47 119 -19 117 46 -2 66 -81 94
-121 43z"/>
<path d="M959 384 c-27 -33 24 -70 55 -39 12 12 13 21 6 36 -13 23 -43 25 -61
3z"/>
<path d="M922 264 c-26 -18 -29 -56 -6 -78 39 -40 105 4 85 56 -8 22 -29 38
-50 38 -3 0 -17 -7 -29 -16z"/>
<path d="M776 254 c-20 -20 -20 -58 0 -78 32 -32 84 -11 84 34 0 33 -23 60
-50 60 -10 0 -26 -7 -34 -16z"/>
<path d="M870 159 c-14 -24 2 -49 31 -49 28 0 43 35 23 54 -21 22 -41 20 -54
-5z"/>
</g>
</svg>
